<mxfile host="65bd71144e">
    <diagram id="m_jqz5XW04Y_MxmVdjxz" name="第 1 页">
        <mxGraphModel dx="2335" dy="949" grid="1" gridSize="10" guides="1" tooltips="1" connect="1" arrows="1" fold="1" page="1" pageScale="1" pageWidth="3300" pageHeight="4681" math="0" shadow="0">
            <root>
                <mxCell id="0"/>
                <mxCell id="1" parent="0"/>
                <mxCell id="147" value="&lt;font style=&quot;font-size: 24px;&quot;&gt;客户端&lt;/font&gt;" style="rounded=0;whiteSpace=wrap;html=1;dashed=1;labelBorderColor=none;fontSize=14;align=left;" vertex="1" parent="1">
                    <mxGeometry x="200" y="1080" width="380" height="70" as="geometry"/>
                </mxCell>
                <mxCell id="157" style="edgeStyle=none;html=1;exitX=1;exitY=0.75;exitDx=0;exitDy=0;entryX=1;entryY=0.5;entryDx=0;entryDy=0;fontSize=18;" edge="1" parent="1" source="82" target="146">
                    <mxGeometry relative="1" as="geometry">
                        <Array as="points">
                            <mxPoint x="1100" y="1313"/>
                            <mxPoint x="1090" y="1930"/>
                        </Array>
                    </mxGeometry>
                </mxCell>
                <mxCell id="82" value="" style="rounded=0;whiteSpace=wrap;html=1;dashed=1;labelBorderColor=none;fontSize=14;" vertex="1" parent="1">
                    <mxGeometry x="650" y="1080" width="420" height="310" as="geometry"/>
                </mxCell>
                <mxCell id="78" value="" style="rounded=0;whiteSpace=wrap;html=1;dashed=1;labelBorderColor=none;fontSize=14;" vertex="1" parent="1">
                    <mxGeometry x="200" y="1410" width="870" height="480" as="geometry"/>
                </mxCell>
                <mxCell id="69" value="" style="html=1;dashed=1;whitespace=wrap;labelBorderColor=default;" vertex="1" parent="1">
                    <mxGeometry x="240" y="1760" width="800" height="110" as="geometry"/>
                </mxCell>
                <mxCell id="68" value="" style="html=1;dashed=1;whitespace=wrap;labelBorderColor=default;textDirection=rtl;" vertex="1" parent="1">
                    <mxGeometry x="370" y="1640" width="670" height="120" as="geometry"/>
                </mxCell>
                <mxCell id="29" value="" style="edgeStyle=none;html=1;" edge="1" parent="1" source="6" target="5">
                    <mxGeometry relative="1" as="geometry"/>
                </mxCell>
                <mxCell id="6" value="&lt;font style=&quot;font-size: 16px;&quot;&gt;&lt;br&gt;抽象层&lt;br&gt;对外提供服务接口&lt;/font&gt;" style="html=1;dashed=0;whitespace=wrap;shape=mxgraph.dfd.externalEntity" vertex="1" parent="1">
                    <mxGeometry x="240" y="1457.5" width="100" height="100" as="geometry"/>
                </mxCell>
                <mxCell id="7" value="服务器群" style="autosize=1;part=1;resizable=0;strokeColor=inherit;fillColor=inherit;gradientColor=inherit;fontSize=16;" vertex="1" parent="6">
                    <mxGeometry width="90" height="30" relative="1" as="geometry">
                        <mxPoint x="-20" y="10" as="offset"/>
                    </mxGeometry>
                </mxCell>
                <mxCell id="5" value="&lt;font style=&quot;font-size: 14px;&quot;&gt;zookeeper文件配置中心&lt;/font&gt;" style="ellipse;shape=doubleEllipse;whiteSpace=wrap;html=1;sketch=0;hachureGap=4;jiggle=2;curveFitting=1;fontFamily=Garamond;fontSize=20;fontColor=#FFFFFF;" vertex="1" parent="1">
                    <mxGeometry x="492.5" y="1470" width="115" height="75" as="geometry"/>
                </mxCell>
                <mxCell id="34" value="" style="edgeStyle=none;html=1;entryX=1;entryY=1;entryDx=0;entryDy=0;" edge="1" parent="1" source="15" target="5">
                    <mxGeometry relative="1" as="geometry"/>
                </mxCell>
                <mxCell id="47" style="edgeStyle=none;html=1;exitX=0;exitY=0;exitDx=45;exitDy=0;exitPerimeter=0;entryX=0.5;entryY=1;entryDx=0;entryDy=0;" edge="1" parent="1" source="15" target="41">
                    <mxGeometry relative="1" as="geometry"/>
                </mxCell>
                <mxCell id="57" style="edgeStyle=none;html=1;exitX=0;exitY=0;exitDx=32.5;exitDy=100;exitPerimeter=0;entryX=0.5;entryY=1;entryDx=0;entryDy=0;" edge="1" parent="1" source="15" target="55">
                    <mxGeometry relative="1" as="geometry"/>
                </mxCell>
                <mxCell id="58" style="edgeStyle=none;html=1;exitX=0;exitY=0;exitDx=77.5;exitDy=100;exitPerimeter=0;entryX=0.5;entryY=1;entryDx=0;entryDy=0;" edge="1" parent="1" source="15" target="56">
                    <mxGeometry relative="1" as="geometry"/>
                </mxCell>
                <mxCell id="163" style="edgeStyle=none;html=1;exitX=0;exitY=0;exitDx=55;exitDy=100;exitPerimeter=0;entryX=0.727;entryY=0.009;entryDx=0;entryDy=0;entryPerimeter=0;fontSize=18;" edge="1" parent="1" source="15" target="156">
                    <mxGeometry relative="1" as="geometry"/>
                </mxCell>
                <mxCell id="15" value="&lt;font style=&quot;font-size: 18px;&quot;&gt;&lt;br&gt;用户、好友&lt;/font&gt;" style="html=1;dashed=0;whitespace=wrap;shape=mxgraph.dfd.externalEntity" vertex="1" parent="1">
                    <mxGeometry x="650" y="1650" width="100" height="100" as="geometry"/>
                </mxCell>
                <mxCell id="16" value="服务器群" style="autosize=1;part=1;resizable=0;strokeColor=inherit;fillColor=inherit;gradientColor=inherit;fontSize=16;" vertex="1" parent="15">
                    <mxGeometry width="90" height="30" relative="1" as="geometry">
                        <mxPoint x="-20" y="10" as="offset"/>
                    </mxGeometry>
                </mxCell>
                <mxCell id="32" value="" style="edgeStyle=none;html=1;" edge="1" parent="1" source="19" target="5">
                    <mxGeometry relative="1" as="geometry"/>
                </mxCell>
                <mxCell id="46" style="edgeStyle=none;html=1;exitX=0;exitY=0;exitDx=45;exitDy=0;exitPerimeter=0;entryX=0.5;entryY=1;entryDx=0;entryDy=0;" edge="1" parent="1" source="19" target="41">
                    <mxGeometry relative="1" as="geometry"/>
                </mxCell>
                <mxCell id="76" style="edgeStyle=none;html=1;exitX=0;exitY=0;exitDx=32.5;exitDy=100;exitPerimeter=0;entryX=0.5;entryY=1;entryDx=0;entryDy=0;fontSize=14;" edge="1" parent="1" source="19" target="74">
                    <mxGeometry relative="1" as="geometry"/>
                </mxCell>
                <mxCell id="160" style="edgeStyle=none;html=1;exitX=0;exitY=0;exitDx=55;exitDy=100;exitPerimeter=0;entryX=0.5;entryY=0;entryDx=0;entryDy=0;fontSize=18;" edge="1" parent="1" source="19" target="146">
                    <mxGeometry relative="1" as="geometry"/>
                </mxCell>
                <mxCell id="19" value="&lt;font style=&quot;font-size: 18px;&quot;&gt;&lt;br&gt;聊天&lt;/font&gt;" style="html=1;dashed=0;whitespace=wrap;shape=mxgraph.dfd.externalEntity" vertex="1" parent="1">
                    <mxGeometry x="250" y="1650" width="100" height="100" as="geometry"/>
                </mxCell>
                <mxCell id="20" value="服务器群" style="autosize=1;part=1;resizable=0;strokeColor=inherit;fillColor=inherit;gradientColor=inherit;fontSize=16;" vertex="1" parent="19">
                    <mxGeometry width="90" height="30" relative="1" as="geometry">
                        <mxPoint x="-20" y="10" as="offset"/>
                    </mxGeometry>
                </mxCell>
                <mxCell id="77" style="edgeStyle=none;html=1;exitX=0;exitY=0;exitDx=77.5;exitDy=100;exitPerimeter=0;entryX=0.5;entryY=1;entryDx=0;entryDy=0;fontSize=14;" edge="1" parent="1" source="19" target="75">
                    <mxGeometry relative="1" as="geometry"/>
                </mxCell>
                <mxCell id="33" value="" style="edgeStyle=none;html=1;entryX=0;entryY=1;entryDx=0;entryDy=0;" edge="1" parent="1" source="21" target="5">
                    <mxGeometry relative="1" as="geometry"/>
                </mxCell>
                <mxCell id="45" style="edgeStyle=none;html=1;exitX=0;exitY=0;exitDx=45;exitDy=0;exitPerimeter=0;entryX=0.5;entryY=1;entryDx=0;entryDy=0;" edge="1" parent="1" source="21" target="41">
                    <mxGeometry relative="1" as="geometry"/>
                </mxCell>
                <mxCell id="61" style="edgeStyle=none;html=1;exitX=0;exitY=0;exitDx=32.5;exitDy=100;exitPerimeter=0;entryX=0.5;entryY=1;entryDx=0;entryDy=0;" edge="1" parent="1" source="21" target="60">
                    <mxGeometry relative="1" as="geometry"/>
                </mxCell>
                <mxCell id="162" style="edgeStyle=none;html=1;exitX=0;exitY=0;exitDx=55;exitDy=100;exitPerimeter=0;entryX=0.527;entryY=0.009;entryDx=0;entryDy=0;entryPerimeter=0;fontSize=18;" edge="1" parent="1" source="21" target="156">
                    <mxGeometry relative="1" as="geometry"/>
                </mxCell>
                <mxCell id="21" value="&lt;font style=&quot;font-size: 18px;&quot;&gt;&lt;br&gt;离线消息&lt;/font&gt;" style="html=1;dashed=0;whitespace=wrap;shape=mxgraph.dfd.externalEntity" vertex="1" parent="1">
                    <mxGeometry x="520" y="1650" width="100" height="100" as="geometry"/>
                </mxCell>
                <mxCell id="22" value="服务器群" style="autosize=1;part=1;resizable=0;strokeColor=inherit;fillColor=inherit;gradientColor=inherit;fontSize=16;" vertex="1" parent="21">
                    <mxGeometry width="90" height="30" relative="1" as="geometry">
                        <mxPoint x="-20" y="10" as="offset"/>
                    </mxGeometry>
                </mxCell>
                <mxCell id="62" style="edgeStyle=none;html=1;exitX=0;exitY=0;exitDx=77.5;exitDy=100;exitPerimeter=0;entryX=0.5;entryY=1;entryDx=0;entryDy=0;" edge="1" parent="1" source="21" target="59">
                    <mxGeometry relative="1" as="geometry"/>
                </mxCell>
                <mxCell id="30" value="" style="edgeStyle=none;html=1;" edge="1" parent="1" source="23" target="5">
                    <mxGeometry relative="1" as="geometry"/>
                </mxCell>
                <mxCell id="44" value="" style="edgeStyle=none;html=1;" edge="1" parent="1" source="23" target="41">
                    <mxGeometry relative="1" as="geometry"/>
                </mxCell>
                <mxCell id="66" style="edgeStyle=none;html=1;exitX=0;exitY=0;exitDx=32.5;exitDy=100;exitPerimeter=0;entryX=0.5;entryY=1;entryDx=0;entryDy=0;" edge="1" parent="1" source="23" target="63">
                    <mxGeometry relative="1" as="geometry"/>
                </mxCell>
                <mxCell id="161" style="edgeStyle=none;html=1;exitX=0;exitY=0;exitDx=55;exitDy=100;exitPerimeter=0;entryX=0.301;entryY=0.037;entryDx=0;entryDy=0;entryPerimeter=0;fontSize=18;" edge="1" parent="1" source="23" target="156">
                    <mxGeometry relative="1" as="geometry"/>
                </mxCell>
                <mxCell id="23" value="&lt;font style=&quot;font-size: 18px;&quot;&gt;&lt;br&gt;群组&lt;/font&gt;" style="html=1;dashed=0;whitespace=wrap;shape=mxgraph.dfd.externalEntity" vertex="1" parent="1">
                    <mxGeometry x="380" y="1650" width="100" height="100" as="geometry"/>
                </mxCell>
                <mxCell id="24" value="服务器群" style="autosize=1;part=1;resizable=0;strokeColor=inherit;fillColor=inherit;gradientColor=inherit;fontSize=16;" vertex="1" parent="23">
                    <mxGeometry width="90" height="30" relative="1" as="geometry">
                        <mxPoint x="-20" y="10" as="offset"/>
                    </mxGeometry>
                </mxCell>
                <mxCell id="67" style="edgeStyle=none;html=1;exitX=0;exitY=0;exitDx=77.5;exitDy=100;exitPerimeter=0;entryX=0.5;entryY=1;entryDx=0;entryDy=0;" edge="1" parent="1" source="23" target="64">
                    <mxGeometry relative="1" as="geometry"/>
                </mxCell>
                <mxCell id="31" value="" style="edgeStyle=none;html=1;exitX=0;exitY=0;exitDx=45;exitDy=0;exitPerimeter=0;" edge="1" parent="1" source="27" target="5">
                    <mxGeometry relative="1" as="geometry"/>
                </mxCell>
                <mxCell id="48" style="edgeStyle=none;html=1;exitX=0;exitY=0;exitDx=45;exitDy=0;exitPerimeter=0;entryX=0.5;entryY=1;entryDx=0;entryDy=0;" edge="1" parent="1" source="27" target="41">
                    <mxGeometry relative="1" as="geometry"/>
                </mxCell>
                <mxCell id="53" value="" style="edgeStyle=none;html=1;" edge="1" parent="1" source="27" target="52">
                    <mxGeometry relative="1" as="geometry"/>
                </mxCell>
                <mxCell id="54" style="edgeStyle=none;html=1;exitX=0;exitY=0;exitDx=32.5;exitDy=100;exitPerimeter=0;entryX=0.5;entryY=1;entryDx=0;entryDy=0;" edge="1" parent="1" source="27" target="49">
                    <mxGeometry relative="1" as="geometry"/>
                </mxCell>
                <mxCell id="164" style="edgeStyle=none;html=1;exitX=0;exitY=0;exitDx=55;exitDy=100;exitPerimeter=0;entryX=0.946;entryY=-0.02;entryDx=0;entryDy=0;entryPerimeter=0;fontSize=18;" edge="1" parent="1" source="27" target="156">
                    <mxGeometry relative="1" as="geometry"/>
                </mxCell>
                <mxCell id="27" value="&lt;font style=&quot;font-size: 18px;&quot;&gt;&lt;br&gt;登录与注册&lt;/font&gt;" style="html=1;dashed=0;whitespace=wrap;shape=mxgraph.dfd.externalEntity" vertex="1" parent="1">
                    <mxGeometry x="790" y="1650" width="100" height="100" as="geometry"/>
                </mxCell>
                <mxCell id="28" value="服务器群" style="autosize=1;part=1;resizable=0;strokeColor=inherit;fillColor=inherit;gradientColor=inherit;fontSize=16;" vertex="1" parent="27">
                    <mxGeometry width="90" height="30" relative="1" as="geometry">
                        <mxPoint x="-20" y="10" as="offset"/>
                    </mxGeometry>
                </mxCell>
                <mxCell id="37" value="" style="edgeStyle=none;html=1;" edge="1" parent="1" source="35" target="5">
                    <mxGeometry relative="1" as="geometry"/>
                </mxCell>
                <mxCell id="35" value="&lt;font style=&quot;font-size: 18px;&quot;&gt;&lt;br&gt;日志&lt;/font&gt;" style="html=1;dashed=0;whitespace=wrap;shape=mxgraph.dfd.externalEntity" vertex="1" parent="1">
                    <mxGeometry x="790" y="1457.5" width="100" height="100" as="geometry"/>
                </mxCell>
                <mxCell id="36" value="服务器" style="autosize=1;part=1;resizable=0;strokeColor=inherit;fillColor=inherit;gradientColor=inherit;fontSize=16;" vertex="1" parent="35">
                    <mxGeometry width="70" height="30" relative="1" as="geometry">
                        <mxPoint x="-10" y="10" as="offset"/>
                    </mxGeometry>
                </mxCell>
                <mxCell id="42" value="" style="edgeStyle=none;html=1;" edge="1" parent="1" source="41" target="35">
                    <mxGeometry relative="1" as="geometry"/>
                </mxCell>
                <mxCell id="41" value="&lt;font style=&quot;font-size: 14px;&quot;&gt;日志存储&lt;/font&gt;" style="html=1;dashed=0;whitespace=wrap;" vertex="1" parent="1">
                    <mxGeometry x="800" y="1577.5" width="80" height="35" as="geometry"/>
                </mxCell>
                <mxCell id="49" value="&lt;font style=&quot;font-size: 14px;&quot;&gt;userserver1&lt;/font&gt;" style="html=1;dashed=0;whitespace=wrap;align=center;horizontal=0;rotation=-180;" vertex="1" parent="1">
                    <mxGeometry x="800" y="1770" width="40" height="90" as="geometry"/>
                </mxCell>
                <mxCell id="52" value="&lt;font style=&quot;font-size: 14px;&quot;&gt;userserver2&lt;/font&gt;" style="html=1;dashed=0;whitespace=wrap;align=center;horizontal=0;rotation=-180;" vertex="1" parent="1">
                    <mxGeometry x="850" y="1770" width="40" height="90" as="geometry"/>
                </mxCell>
                <mxCell id="55" value="&lt;font style=&quot;font-size: 14px;&quot;&gt;friendserver1&lt;/font&gt;" style="html=1;dashed=0;whitespace=wrap;align=center;horizontal=0;rotation=-180;" vertex="1" parent="1">
                    <mxGeometry x="660" y="1770" width="40" height="90" as="geometry"/>
                </mxCell>
                <mxCell id="56" value="&lt;font style=&quot;font-size: 14px;&quot;&gt;friendserver2&lt;/font&gt;" style="html=1;dashed=0;whitespace=wrap;align=center;horizontal=0;rotation=-180;" vertex="1" parent="1">
                    <mxGeometry x="710" y="1770" width="40" height="90" as="geometry"/>
                </mxCell>
                <mxCell id="59" value="&lt;font style=&quot;font-size: 14px;&quot;&gt;offlineserver2&lt;/font&gt;" style="html=1;dashed=0;whitespace=wrap;align=center;horizontal=0;rotation=-180;" vertex="1" parent="1">
                    <mxGeometry x="580" y="1770" width="40" height="90" as="geometry"/>
                </mxCell>
                <mxCell id="60" value="&lt;font style=&quot;font-size: 14px;&quot;&gt;offlineserver1&lt;/font&gt;" style="html=1;dashed=0;whitespace=wrap;align=center;horizontal=0;rotation=-180;" vertex="1" parent="1">
                    <mxGeometry x="530" y="1770" width="40" height="90" as="geometry"/>
                </mxCell>
                <mxCell id="63" value="&lt;font style=&quot;font-size: 14px;&quot;&gt;groupserver1&lt;/font&gt;" style="html=1;dashed=0;whitespace=wrap;align=center;horizontal=0;rotation=-180;" vertex="1" parent="1">
                    <mxGeometry x="390" y="1770" width="40" height="90" as="geometry"/>
                </mxCell>
                <mxCell id="64" value="&lt;font style=&quot;font-size: 14px;&quot;&gt;groupserver2&lt;/font&gt;" style="html=1;dashed=0;whitespace=wrap;align=center;horizontal=0;rotation=-180;" vertex="1" parent="1">
                    <mxGeometry x="440" y="1770" width="40" height="90" as="geometry"/>
                </mxCell>
                <mxCell id="71" value="&lt;div style=&quot;&quot;&gt;&lt;span style=&quot;background-color: initial;&quot;&gt;&lt;font style=&quot;font-size: 18px;&quot;&gt;Service，抽象节点，管理一群server服务节点&lt;/font&gt;&lt;/span&gt;&lt;/div&gt;" style="text;html=1;strokeColor=none;fillColor=none;align=left;verticalAlign=middle;whiteSpace=wrap;rounded=0;dashed=1;labelBorderColor=none;" vertex="1" parent="1">
                    <mxGeometry x="927" y="1640" width="100" height="120" as="geometry"/>
                </mxCell>
                <mxCell id="72" value="&lt;font style=&quot;font-size: 18px;&quot;&gt;Server，服务节点，提供真正的服务&lt;/font&gt;" style="text;html=1;strokeColor=none;fillColor=none;align=left;verticalAlign=middle;whiteSpace=wrap;rounded=0;dashed=1;labelBorderColor=none;" vertex="1" parent="1">
                    <mxGeometry x="927" y="1760" width="100" height="110" as="geometry"/>
                </mxCell>
                <mxCell id="74" value="&lt;font style=&quot;font-size: 14px;&quot;&gt;chatserver1&lt;/font&gt;" style="html=1;dashed=0;whitespace=wrap;align=center;horizontal=0;rotation=-180;" vertex="1" parent="1">
                    <mxGeometry x="260" y="1770" width="40" height="90" as="geometry"/>
                </mxCell>
                <mxCell id="75" value="&lt;font style=&quot;font-size: 14px;&quot;&gt;chatserver2&lt;/font&gt;" style="html=1;dashed=0;whitespace=wrap;align=center;horizontal=0;rotation=-180;" vertex="1" parent="1">
                    <mxGeometry x="310" y="1770" width="40" height="90" as="geometry"/>
                </mxCell>
                <mxCell id="79" value="&lt;div style=&quot;&quot;&gt;&lt;font style=&quot;font-size: 16px;&quot;&gt;服务器群1&lt;/font&gt;&lt;/div&gt;" style="text;html=1;strokeColor=none;fillColor=none;align=left;verticalAlign=middle;whiteSpace=wrap;rounded=0;dashed=1;labelBorderColor=none;" vertex="1" parent="1">
                    <mxGeometry x="950" y="1420" width="77" height="50" as="geometry"/>
                </mxCell>
                <mxCell id="140" value="" style="edgeStyle=none;html=1;fontSize=14;entryX=0;entryY=0;entryDx=45;entryDy=0;entryPerimeter=0;" edge="1" parent="1" source="80" target="6">
                    <mxGeometry relative="1" as="geometry"/>
                </mxCell>
                <mxCell id="141" value="" style="edgeStyle=none;html=1;fontSize=14;entryX=0;entryY=0;entryDx=0;entryDy=90;entryPerimeter=0;" edge="1" parent="1" source="80" target="86">
                    <mxGeometry relative="1" as="geometry"/>
                </mxCell>
                <mxCell id="80" value="&lt;font style=&quot;font-size: 18px;&quot;&gt;&lt;br&gt;Ngnix&lt;/font&gt;" style="html=1;dashed=0;whitespace=wrap;shape=mxgraph.dfd.externalEntity" vertex="1" parent="1">
                    <mxGeometry x="200" y="1240" width="100" height="100" as="geometry"/>
                </mxCell>
                <mxCell id="81" value="服务器" style="autosize=1;part=1;resizable=0;strokeColor=inherit;fillColor=inherit;gradientColor=inherit;fontSize=16;" vertex="1" parent="80">
                    <mxGeometry width="70" height="30" relative="1" as="geometry">
                        <mxPoint x="-10" y="10" as="offset"/>
                    </mxGeometry>
                </mxCell>
                <mxCell id="86" value="&lt;font style=&quot;font-size: 16px;&quot;&gt;&lt;br&gt;抽象层&lt;br&gt;对外提供服务接口&lt;/font&gt;" style="html=1;dashed=0;whitespace=wrap;shape=mxgraph.dfd.externalEntity" vertex="1" parent="1">
                    <mxGeometry x="680" y="1140" width="100" height="100" as="geometry"/>
                </mxCell>
                <mxCell id="87" value="服务器群" style="autosize=1;part=1;resizable=0;strokeColor=inherit;fillColor=inherit;gradientColor=inherit;fontSize=16;" vertex="1" parent="86">
                    <mxGeometry width="90" height="30" relative="1" as="geometry">
                        <mxPoint x="-20" y="10" as="offset"/>
                    </mxGeometry>
                </mxCell>
                <mxCell id="85" value="" style="edgeStyle=none;html=1;" edge="1" parent="1" source="86" target="88">
                    <mxGeometry relative="1" as="geometry"/>
                </mxCell>
                <mxCell id="88" value="&lt;font style=&quot;font-size: 12px;&quot;&gt;zookeeper文件配置中心&lt;/font&gt;" style="ellipse;shape=doubleEllipse;whiteSpace=wrap;html=1;sketch=0;hachureGap=4;jiggle=2;curveFitting=1;fontFamily=Garamond;fontSize=20;fontColor=#FFFFFF;" vertex="1" parent="1">
                    <mxGeometry x="797.5" y="1152.5" width="115" height="75" as="geometry"/>
                </mxCell>
                <mxCell id="95" value="" style="edgeStyle=none;html=1;exitX=0.25;exitY=0;exitDx=0;exitDy=0;" edge="1" parent="1" source="139" target="88">
                    <mxGeometry relative="1" as="geometry">
                        <mxPoint x="800" y="1241.4624414968525" as="sourcePoint"/>
                    </mxGeometry>
                </mxCell>
                <mxCell id="107" value="" style="edgeStyle=none;html=1;exitX=0.75;exitY=0;exitDx=0;exitDy=0;" edge="1" parent="1" source="139" target="88">
                    <mxGeometry relative="1" as="geometry">
                        <mxPoint x="911.1304541677009" y="1230" as="sourcePoint"/>
                    </mxGeometry>
                </mxCell>
                <mxCell id="136" value="&lt;div style=&quot;&quot;&gt;&lt;font style=&quot;font-size: 16px;&quot;&gt;服务器群2&lt;/font&gt;&lt;/div&gt;" style="text;html=1;strokeColor=none;fillColor=none;align=left;verticalAlign=middle;whiteSpace=wrap;rounded=0;dashed=1;labelBorderColor=none;" vertex="1" parent="1">
                    <mxGeometry x="960" y="1090" width="80" height="50" as="geometry"/>
                </mxCell>
                <mxCell id="139" value=".。。。。。。。。。。。。。。。。。。。" style="html=1;dashed=1;whitespace=wrap;labelBorderColor=none;" vertex="1" parent="1">
                    <mxGeometry x="670" y="1270" width="370" height="100" as="geometry"/>
                </mxCell>
                <mxCell id="143" value="&lt;font style=&quot;font-size: 18px;&quot;&gt;&lt;br&gt;日志&lt;/font&gt;" style="html=1;dashed=0;whitespace=wrap;shape=mxgraph.dfd.externalEntity" vertex="1" parent="1">
                    <mxGeometry x="954" y="1150" width="100" height="100" as="geometry"/>
                </mxCell>
                <mxCell id="144" value="服务器" style="autosize=1;part=1;resizable=0;strokeColor=inherit;fillColor=inherit;gradientColor=inherit;fontSize=16;" vertex="1" parent="143">
                    <mxGeometry width="70" height="30" relative="1" as="geometry">
                        <mxPoint x="-10" y="10" as="offset"/>
                    </mxGeometry>
                </mxCell>
                <mxCell id="145" value="" style="edgeStyle=none;html=1;fontSize=14;" edge="1" parent="1" source="143" target="88">
                    <mxGeometry relative="1" as="geometry"/>
                </mxCell>
                <mxCell id="159" value="" style="edgeStyle=none;html=1;fontSize=18;entryX=0.1;entryY=0.066;entryDx=0;entryDy=0;entryPerimeter=0;" edge="1" parent="1" source="146" target="156">
                    <mxGeometry relative="1" as="geometry"/>
                </mxCell>
                <mxCell id="146" value="&lt;font style=&quot;font-size: 18px;&quot;&gt;Redis&lt;/font&gt;" style="rounded=0;whiteSpace=wrap;html=1;dashed=1;labelBorderColor=none;fontSize=14;" vertex="1" parent="1">
                    <mxGeometry x="240" y="1910" width="130" height="40" as="geometry"/>
                </mxCell>
                <mxCell id="148" style="edgeStyle=none;html=1;exitX=0.25;exitY=1;exitDx=0;exitDy=0;entryX=0;entryY=0;entryDx=45;entryDy=0;entryPerimeter=0;fontSize=18;" edge="1" parent="1" source="151" target="80">
                    <mxGeometry relative="1" as="geometry"/>
                </mxCell>
                <mxCell id="149" style="edgeStyle=none;html=1;exitX=1;exitY=0.5;exitDx=0;exitDy=0;entryX=0;entryY=0;entryDx=0;entryDy=0;entryPerimeter=0;fontSize=18;" edge="1" parent="1" source="152" target="35">
                    <mxGeometry relative="1" as="geometry"/>
                </mxCell>
                <mxCell id="150" style="edgeStyle=none;html=1;exitX=1;exitY=0.5;exitDx=0;exitDy=0;entryX=0;entryY=0;entryDx=0;entryDy=0;entryPerimeter=0;fontSize=18;" edge="1" parent="1" source="152" target="143">
                    <mxGeometry relative="1" as="geometry"/>
                </mxCell>
                <mxCell id="151" value="&lt;div style=&quot;&quot;&gt;&lt;font style=&quot;font-size: 16px;&quot;&gt;获取服务&lt;/font&gt;&lt;/div&gt;" style="text;html=1;strokeColor=none;fillColor=none;align=left;verticalAlign=middle;whiteSpace=wrap;rounded=0;dashed=1;labelBorderColor=none;" vertex="1" parent="1">
                    <mxGeometry x="353.5" y="1090" width="73" height="50" as="geometry"/>
                </mxCell>
                <mxCell id="152" value="&lt;div style=&quot;&quot;&gt;&lt;font style=&quot;font-size: 16px;&quot;&gt;读取日志&lt;/font&gt;&lt;/div&gt;" style="text;html=1;strokeColor=none;fillColor=none;align=left;verticalAlign=middle;whiteSpace=wrap;rounded=0;dashed=1;labelBorderColor=none;" vertex="1" parent="1">
                    <mxGeometry x="492.5" y="1090" width="73" height="50" as="geometry"/>
                </mxCell>
                <mxCell id="156" value="&lt;font style=&quot;font-size: 18px;&quot;&gt;Mysql&lt;/font&gt;" style="rounded=0;whiteSpace=wrap;html=1;dashed=1;labelBorderColor=none;fontSize=14;" vertex="1" parent="1">
                    <mxGeometry x="240" y="1970" width="640" height="50" as="geometry"/>
                </mxCell>
                <mxCell id="158" style="edgeStyle=none;html=1;exitX=1;exitY=0.75;exitDx=0;exitDy=0;entryX=1;entryY=0.5;entryDx=0;entryDy=0;fontSize=18;" edge="1" parent="1" source="82" target="156">
                    <mxGeometry relative="1" as="geometry">
                        <mxPoint x="1080" y="1235" as="sourcePoint"/>
                        <mxPoint x="1165" y="1520" as="targetPoint"/>
                        <Array as="points">
                            <mxPoint x="1120" y="1320"/>
                            <mxPoint x="1120" y="1995"/>
                        </Array>
                    </mxGeometry>
                </mxCell>
            </root>
        </mxGraphModel>
    </diagram>
</mxfile>